<svg xmlns="http://www.w3.org/2000/svg" width="479" height="109" viewBox="0 0 479 109">
  <defs>
    <linearGradient id="film-gradient" x1="0" y1="0" x2="1" y2="1" gradientUnits="objectBoundingBox">
      <stop offset="0" stop-color="#ff2020"/>
      <stop offset="1" stop-color="#e50914"/>
    </linearGradient>
  </defs>
  <g transform="translate(0, 28)">
    <!-- Film strip body -->
    <rect x="0" y="0" width="99" height="58" rx="4" fill="url(#film-gradient)"/>
    <!-- Top sprocket holes -->
    <rect x="7" y="4" width="6" height="6" rx="1" fill="#0a0a0a"/>
    <rect x="17" y="4" width="6" height="6" rx="1" fill="#0a0a0a"/>
    <rect x="27" y="4" width="6" height="6" rx="1" fill="#0a0a0a"/>
    <rect x="37" y="4" width="6" height="6" rx="1" fill="#0a0a0a"/>
    <rect x="47" y="4" width="6" height="6" rx="1" fill="#0a0a0a"/>
    <rect x="57" y="4" width="6" height="6" rx="1" fill="#0a0a0a"/>
    <rect x="67" y="4" width="6" height="6" rx="1" fill="#0a0a0a"/>
    <rect x="77" y="4" width="6" height="6" rx="1" fill="#0a0a0a"/>
    <rect x="87" y="4" width="6" height="6" rx="1" fill="#0a0a0a"/>
    <!-- Bottom sprocket holes -->
    <rect x="7" y="48" width="6" height="6" rx="1" fill="#0a0a0a"/>
    <rect x="17" y="48" width="6" height="6" rx="1" fill="#0a0a0a"/>
    <rect x="27" y="48" width="6" height="6" rx="1" fill="#0a0a0a"/>
    <rect x="37" y="48" width="6" height="6" rx="1" fill="#0a0a0a"/>
    <rect x="47" y="48" width="6" height="6" rx="1" fill="#0a0a0a"/>
    <rect x="57" y="48" width="6" height="6" rx="1" fill="#0a0a0a"/>
    <rect x="67" y="48" width="6" height="6" rx="1" fill="#0a0a0a"/>
    <rect x="77" y="48" width="6" height="6" rx="1" fill="#0a0a0a"/>
    <rect x="87" y="48" width="6" height="6" rx="1" fill="#0a0a0a"/>
    <!-- Film frames -->
    <rect x="7" y="14" width="28" height="30" rx="2" fill="#0a0a0a"/>
    <rect x="39" y="14" width="28" height="30" rx="2" fill="#0a0a0a"/>
    <rect x="71" y="14" width="22" height="30" rx="2" fill="#0a0a0a"/>
    <!-- Text -->
    <text x="112" y="49" fill="#e5e5e5" font-size="72" font-family="'Bebas Neue', 'Arial Narrow', sans-serif" font-weight="400" letter-spacing="0.04em">Reeling<tspan fill="#e50914" font-weight="400">It</tspan></text>
  </g>
</svg>
